<?xml version="1.0" encoding="utf-8"?>
<!-- Generator: Adobe Illustrator 15.0.0, SVG Export Plug-In . SVG Version: 6.00 Build 0)  -->
<!DOCTYPE svg PUBLIC "-//W3C//DTD SVG 1.1//EN" "http://www.w3.org/Graphics/SVG/1.1/DTD/svg11.dtd">
<svg version="1.1" id="Layer_1" xmlns="http://www.w3.org/2000/svg" xmlns:xlink="http://www.w3.org/1999/xlink" x="0px" y="0px"
	 width="207.017px" height="35px" viewBox="0 0 207.017 35" enable-background="new 0 0 207.017 35" xml:space="preserve">
<g>
	<path fill="#FFFFFF" d="M10.007,21.915l-1.219-2.767C18.812,7.55,32.193,8.447,32.193,8.447l1.124,2.505l5.143-6.991H15.028
		L0,21.883h3.666v5.205c-1.201,1.416,0,2.985,0,2.985l-1.664,3.08h4.25l-1.478-3.14c1.263-1.324,0.031-3.019,0.031-3.019v-5.112
		L10.007,21.915z"/>
	<path fill="#FFFFFF" d="M10.685,20.866l2.618,5.79l21.402-9.822l-2.618-5.852c-2.976-0.18-6.738,0.394-11.92,2.617
		C15.568,15.617,12.915,17.721,10.685,20.866z"/>
</g>
<g>
	<path fill="#B8E4F5" d="M42.849,12.145h3.21v1.709c0,0,2.103-2.517,5.982-1.917v2.216c-4.273-0.739-5.982,1.571-5.982,1.571v8.729
		h-3.21V12.145z"/>
	<path fill="#B8E4F5" d="M69.592,18.841c0,0,0.912-6.777-8.244-6.95c-9.169,0.23-8.246,6.95-8.246,6.95s0.093,5.624,8.246,5.913
		c7.61,0,7.898-3.948,7.898-3.948h-3.234c0,0,0.335,2.065-4.666,2.159c-5.092-0.127-4.965-4.124-4.965-4.124H69.592z M56.348,17.064
		c0,0,0.276-3.395,4.999-3.395c4.723,0,5.035,3.395,5.035,3.395H56.348z"/>
	<path fill="#B8E4F5" d="M107.375,18.794c0,0,0.912-6.778-8.245-6.952c-9.168,0.231-8.245,6.952-8.245,6.952
		s0.093,5.625,8.245,5.911c7.609,0,7.899-3.946,7.899-3.946h-3.232c0,0,0.333,2.064-4.667,2.158
		c-5.091-0.126-4.965-4.123-4.965-4.123H107.375z M94.131,17.016c0,0,0.275-3.395,4.998-3.395s5.036,3.395,5.036,3.395H94.131z"/>
	<path fill="#B8E4F5" d="M84.235,7.595v5.635c0,0-1.802-1.374-4.874-1.339c-7.853,0.266-7.39,6.627-7.39,6.627
		s-0.37,6.133,7.159,6.236c3.429-0.045,5.081-1.778,5.081-1.778v1.479h3.232V7.595H84.235z M84.223,20.956
		c-2.08,2.194-4.517,1.986-4.517,1.986s-4.42,0.622-4.479-4.527c-0.057-5.149,4.479-4.746,4.479-4.746s2.588-0.15,4.517,1.478
		V20.956z"/>
</g>
<g>
	<rect x="130.008" y="7.78" fill="#FFFFFF" width="3.117" height="16.952"/>
	<rect x="203.841" y="7.78" fill="#FFFFFF" width="3.21" height="2.379"/>
	<rect x="203.841" y="12.422" fill="#FFFFFF" width="3.21" height="12.287"/>
	<path fill="#FFFFFF" d="M117.967,12.184c-7.682-0.155-7.42,3.786-7.42,3.786h3.203c0,0-0.387-2.094,4.201-2.109
		c4.696-0.061,4.265,2.109,4.265,2.109v1.172h-3.032c-2.522,0.105-9.254,0.569-9.1,4.295c0,3.002,4.45,3.447,4.45,3.447
		s1.447,0.186,3.571,0c2.126-0.184,4.11-1.4,4.11-1.4v1.247h3.142c0,0,0-8.544,0-8.56C125.358,16.156,125.65,11.845,117.967,12.184z
		 M122.216,21.482c0,0-1.539,1.817-5.496,1.771c-3.757-0.076-3.417-1.892-3.417-1.892s-0.555-2.511,5.834-2.558h3.079V21.482z"/>
	<path fill="#FFFFFF" d="M137.614,12.476h3.265v8.176c0,0-0.263,2.909,3.556,2.524c2.741-0.076,4.495-1.939,4.495-1.939v-8.761
		h3.172v12.255h-3.172v-1.555c0,0-1.938,1.832-5.265,1.771c-6.129,0.386-6.051-4.11-6.051-4.11V12.476z"/>
	<path fill="#FFFFFF" d="M199.459,24.665h-3.263V16.49c0,0,0.262-2.91-3.557-2.525c-2.74,0.078-4.495,1.941-4.495,1.941v8.76h-3.174
		V12.41h3.174v1.555c0,0,1.938-1.832,5.265-1.77c6.128-0.385,6.05,4.111,6.05,4.111V24.665z"/>
	<path fill="#FFFFFF" d="M156.659,12.476h3.14v1.517c0.434-0.085,1.633-1.763,5.02-1.809c3.604-0.247,4.82,2.131,4.82,2.131
		c0.631-0.068,2.092-2.285,5.635-2.102c5.434-0.138,5.241,4.319,5.241,4.319v8.176h-3.186l-0.008-8.09c0,0,0.276-2.772-2.648-2.664
		c-2.925,0.107-4.558,1.94-4.558,1.94l0.017,8.814h-3.156v-8.615c0,0,0.077-2.278-2.695-2.155c-2.772,0.123-4.495,1.97-4.495,1.97
		v8.8h-3.126V12.476z"/>
</g>
</svg>
